<svg xmlns="http://www.w3.org/2000/svg" data-name="Layer 2" viewBox="0 0 499.87 650.42">
  <g data-name="Layer 1">
    <path
      d="M268.35 242.77c13.19 5.16 25.85 10.1 38.49 15.08 62.68 24.68 125.34 49.4 188.07 73.97 3.64 1.42 4.97 3.05 4.96 7.12-.14 101.82-.11 203.65-.11 305.47v5.67c-2.18.1-3.8.24-5.43.24-73.49.01-146.99-.03-220.48.1-4.51 0-5.88-1.09-5.88-5.77.13-132.15.1-264.31.11-396.46 0-1.6.14-3.2.25-5.42ZM.35 0h231.13c.1 1.65.26 3.1.26 4.55.03 5.5 0 11 .01 16.49.08 96.29.13 192.58.36 288.87.01 4.7-1.38 6.87-5.8 8.6-73.4 28.72-146.72 57.64-220.06 86.51-1.8.71-3.65 1.29-5.91 2.08V0ZM231.61 650.32H6.66q-6.57 0-6.58-6.37c0-63.99.04-127.98-.09-191.97 0-4.05 1.05-6.05 5.04-7.61 74.17-29.07 148.26-58.32 222.38-87.52 1.2-.47 2.47-.79 4.19-1.32v294.79ZM268.09.01h231.38v294.5c-2.37-.82-4.64-1.51-6.84-2.38-73.17-28.83-146.33-57.72-219.55-86.42-3.99-1.56-5.08-3.5-5.07-7.57.12-64.14.09-128.27.09-192.41V.01Z" />
  </g>
</svg>
