<?xml version="1.0" encoding="UTF-8" standalone="no"?>
<!DOCTYPE svg PUBLIC "-//W3C//DTD SVG 1.1//EN" "http://www.w3.org/Graphics/SVG/1.1/DTD/svg11.dtd">
<!-- Created with Vectornator (http://vectornator.io/) -->
<svg height="595.35pt" stroke-miterlimit="10" style="fill-rule:nonzero;clip-rule:evenodd;stroke-linecap:round;stroke-linejoin:round;" version="1.1" viewBox="0 0 841.995 595.35" width="841.995pt" xml:space="preserve" xmlns="http://www.w3.org/2000/svg" xmlns:xlink="http://www.w3.org/1999/xlink">
<defs/>
<g id="Layer-1">
<path d="M565.221 102.577C560.004 101.815 554.532 102.74 549.652 105.378L514.312 124.42L481.325 137.582C473.874 140.542 468.311 146.899 466.315 154.663C466.17 155.228 465.971 156.009 465.754 157.014C465.428 158.534 465.096 160.179 464.802 162C464.562 163.49 464.533 165.027 464.354 166.536C459.901 166.97 455.47 168.459 451.64 171.352C450.329 172.345 443.326 177.594 441.952 178.634C432.724 185.605 429.778 197.674 433.887 207.925L409.468 187.258C408.248 184.111 406.355 181.173 403.812 178.634L389.306 164.183C389.231 164.108 389.158 164.034 389.082 163.959C382.245 157.113 373.039 154.222 364.103 154.998L332.291 123.131C330.592 121.432 328.633 119.968 326.524 118.819C326.524 118.819 304.901 107.113 304.681 107.002C301.808 105.546 298.913 104.652 296.057 104.258C276.059 101.496 258.34 122.87 269.174 143.182L280.823 164.576C280.888 164.696 280.979 164.794 281.047 164.913C276.434 164.823 271.771 165.918 267.437 168.216C265.193 169.406 262.996 170.813 260.996 172.696C260.985 172.707 260.951 172.685 260.941 172.696C260.828 172.802 260.77 172.926 260.661 173.033C246.97 186.236 243.382 203.671 247.499 221.757C250.005 232.765 254.747 242.663 261.948 254.578C265.593 260.596 268.588 265.078 275.334 274.74C275.377 274.801 279.913 281.33 281.551 283.756C286.874 291.64 289.401 299.494 289.503 308.736C289.596 317.283 288.481 324.776 284.856 342.451C284.544 343.967 284.409 344.641 284.239 345.476C279.285 369.773 277.76 383.673 280.151 400.641C284.375 430.745 302.039 458.273 327.531 475.41C351.38 491.418 381.627 498.126 406.949 488.738C422.001 483.152 433.595 471.569 439.208 456.535C443.509 444.989 443.558 436.912 441.783 421.028C441.645 419.793 441.71 419.71 441.615 418.787C442.57 419.069 443.454 419.2 444.416 419.571C448.234 421.047 451.68 422.651 458.922 426.125C459.184 426.25 459.162 426.221 459.426 426.349C474.891 433.765 482.394 436.847 493.085 439.342C517.011 444.961 539.999 437.941 554.188 417.667C565.174 401.996 566.737 384.417 560.181 367.654C555.932 356.79 549.419 347.958 539.01 336.626C538.806 336.404 538.481 336.065 538.169 335.73C536.7 330.54 533.988 325.705 529.993 321.672L522.488 314.168C522.369 302.51 517.914 291.076 509.27 282.357L509.159 282.188L492.692 265.442C494.897 266.046 497.216 266.507 499.861 266.507C499.865 266.507 499.915 266.507 499.919 266.507C502.352 266.507 504.693 266.06 506.974 265.387C507.983 265.1 508.896 264.722 509.831 264.322C510.865 263.874 511.835 263.338 512.799 262.754C513.831 262.128 514.856 261.555 515.767 260.795C515.797 260.768 515.849 260.763 515.88 260.738C517.364 259.51 518.726 258.107 519.912 256.538C519.961 256.474 520.183 256.176 520.247 256.09C520.258 256.078 520.294 256.046 520.305 256.033C520.314 256.021 520.294 255.992 520.305 255.978C521.706 254.115 526.257 248.086 527.192 246.848C530.078 243.031 531.63 238.624 532.065 234.192C533.554 234.012 535.074 233.98 536.546 233.744C538.363 233.45 540.069 233.116 541.587 232.792C542.591 232.575 543.376 232.432 543.938 232.287C551.691 230.299 557.993 224.709 560.964 217.277L574.743 182.777L593.112 148.726C598.36 138.971 596.575 126.931 588.743 119.099L587.288 117.644C586.2 116.556 585.037 115.633 583.815 114.787C582.965 113.559 581.996 112.351 580.902 111.258L579.334 109.69C575.411 105.767 570.438 103.338 565.221 102.577ZM309.106 194.315L316.891 202.101C316.242 209.484 318.126 216.999 322.658 223.27C322.673 223.292 322.701 223.306 322.716 223.326C323.676 224.65 324.658 225.942 325.852 227.134L340.525 241.808C344.125 245.409 348.591 247.689 353.238 248.64L373.288 272.331L346.294 300.951C345.677 292.192 344.109 283.819 341.252 275.58C337.152 263.745 332.202 255.687 321.203 240.409C320.44 239.348 320.067 238.803 319.69 238.28C316.611 233.994 314.81 231.381 313.138 228.759C310.256 224.254 309.667 223.336 308.434 221.254C305.903 216.987 304.199 213.497 303.337 210.78C303.32 210.73 303.295 210.717 303.281 210.669C307.143 205.705 308.939 199.991 309.106 194.315ZM424.422 326.882C431.439 334.167 443.995 347.182 444.079 347.268C452.816 356.003 464.347 360.477 476.059 360.597L483.452 368.045C487.631 372.224 492.759 374.839 498.182 376.278C498.358 376.459 498.87 376.963 498.965 377.063C501.655 379.859 502.994 381.682 504.399 383.56C501.157 382.694 497.442 381.237 491.685 378.463C491.497 378.372 484.249 374.814 482.108 373.814C481.041 373.316 477.093 371.461 476.62 371.239C459.212 363.039 448.142 359.46 433.831 359.756C406.189 360.31 385.023 381.766 383.985 409.265C383.783 414.624 384.123 418.354 385.105 426.236C385.19 426.915 385.227 427.263 385.274 427.635C385.727 431.34 385.863 433.279 385.833 434.862C385.829 435.136 385.79 435.109 385.777 435.31C385.34 435.415 385.138 435.537 384.378 435.589C372.461 436.421 358.377 429.727 348.813 418.619C338.15 406.246 335.125 390.874 338.229 369.837C352.254 379.248 371.304 376.922 383.817 365.246L424.422 326.882Z" fill="#ffffff" fill-rule="nonzero" opacity="1" stroke="#000000" stroke-linecap="butt" stroke-linejoin="round" stroke-width="0.1"/>
</g>
</svg>
