<?xml version="1.0" encoding="UTF-8" standalone="no"?>
<!DOCTYPE svg PUBLIC "-//W3C//DTD SVG 1.1//EN" "http://www.w3.org/Graphics/SVG/1.1/DTD/svg11.dtd">
<!-- Created with Vectornator (http://vectornator.io/) -->
<svg height="595.35pt" stroke-miterlimit="10" style="fill-rule:nonzero;clip-rule:evenodd;stroke-linecap:round;stroke-linejoin:round;" version="1.1" viewBox="0 0 841.995 595.35" width="841.995pt" xml:space="preserve" xmlns="http://www.w3.org/2000/svg" xmlns:xlink="http://www.w3.org/1999/xlink">
<defs/>
<g id="Layer-1">
<path d="M401.251 266.504L365.245 223.938C365.245 223.938 375.156 216.948 377.934 214.17C380.712 211.392 387.558 201.624 387.558 201.624L430.214 237.649L401.269 266.486L401.251 266.486L401.251 266.504ZM496.331 202.251C509.325 215.245 537.697 207.969 537.697 207.969L552.089 171.98L570.997 136.833L569.546 135.382L528.288 176.478C530.134 180.834 529.309 186.049 525.743 189.598C521.065 194.276 513.483 194.276 508.806 189.598C504.128 184.92 504.128 177.339 508.806 172.661C512.354 169.13 517.588 168.27 521.925 170.116L563.183 129.019L561.588 127.424L524.954 147.229L490.596 160.886C490.596 160.886 483.302 189.257 496.313 202.251L496.313 202.251L496.331 202.251ZM343.612 209.402L358.291 224.081L386.053 196.373L371.374 181.712C368.883 179.167 364.797 179.167 362.287 181.712L358.846 185.207L314.523 140.884L293.357 129.36C292.012 128.679 290.596 130.059 291.313 131.403L302.838 152.57L347.161 196.892L343.612 200.334C341.103 202.825 341.103 206.911 343.612 209.42L343.612 209.385L343.612 209.402ZM499.898 241.43C502.336 238.204 504.737 234.978 507.175 231.752C491.869 220.264 478.283 206.66 466.777 191.354C463.551 193.792 460.325 196.193 457.099 198.631C460.092 202.628 463.228 206.481 466.472 210.227L351.623 331.851C347.143 336.672 346.73 343.877 350.691 347.838C354.67 351.834 361.857 351.404 366.678 346.906L488.302 232.057C492.048 235.319 495.919 238.437 499.898 241.43L499.88 241.43L499.898 241.43ZM278.247 190.924C263.3 205.083 274.734 227.271 283.391 241.592C289.252 251.27 296.027 260.339 302.354 269.712C310.294 281.47 314.416 294.087 314.577 308.461C314.9 338.267 300.794 367.248 305.006 397.143C308.268 420.389 322.105 441.573 341.515 454.621C357.108 465.088 379.834 472.024 398.204 465.214C406.413 462.167 412.632 455.983 415.697 447.775C420.178 435.749 415.823 423.669 416.002 411.392C416.324 388.648 438.19 390.314 453.442 396.193C468.641 402.072 482.782 411.212 498.769 414.94C512.426 418.148 525.312 415.155 533.629 403.273C548.755 381.694 528.467 362.104 514.129 346.726C514.756 344.146 514.129 341.314 512.157 339.324L495.794 322.961C499.092 315.308 497.64 306.167 491.403 299.93L466.741 274.838C462.224 277.24 453.765 283.405 450.073 287.044C446.309 290.772 439.767 299.464 437.294 304.052C445.467 312.548 453.622 321.043 461.812 329.539C468.049 335.776 477.19 337.174 484.825 333.93L501.188 350.293C503.411 352.515 506.745 353.053 509.523 351.942C518.502 361.387 532.069 373.019 532.374 386.784C532.571 395.871 524.882 405.674 516.279 408.363C501.583 412.933 484.305 402.574 471.491 396.587C460.038 391.229 447.367 384.561 434.355 384.83C420.034 385.117 409.603 395.978 409.066 410.227C408.618 422.02 413.564 434.422 408.958 445.911C405.123 455.517 395.982 459.962 386.107 460.643C364.779 462.131 343.415 450.84 329.776 434.996C311.548 413.847 309.146 388.684 313.824 362.104C318.359 336.493 326.424 309.429 317.534 283.782C312.193 268.368 300.615 255.822 291.959 242.237C284.413 230.444 269.877 208.453 283.122 195.889C286.384 192.788 281.455 187.877 278.194 190.96L278.247 190.96L278.247 190.924Z" fill="#000000" fill-rule="nonzero" opacity="1" stroke="none"/>
</g>
</svg>
